<?xml version="1.0" encoding="UTF-8" standalone="no"?>
<svg
   xmlns:dc="http://purl.org/dc/elements/1.1/"
   xmlns:cc="http://creativecommons.org/ns#"
   xmlns:rdf="http://www.w3.org/1999/02/22-rdf-syntax-ns#"
   xmlns:svg="http://www.w3.org/2000/svg"
   xmlns="http://www.w3.org/2000/svg"
   xmlns:xlink="http://www.w3.org/1999/xlink"
   xmlns:sodipodi="http://sodipodi.sourceforge.net/DTD/sodipodi-0.dtd"
   xmlns:inkscape="http://www.inkscape.org/namespaces/inkscape"
   version="1.1"
   width="20cm"
   height="20cm"
   id="svg3336"
   inkscape:version="0.91 r13725"
   viewBox="0 0 708.66139 708.66139"
   sodipodi:docname="Shokuhin Logo.svg"
   inkscape:export-filename="C:\Users\shayp\workspace\Shokuhin\Shokuhin Logo.png"
   inkscape:export-xdpi="90"
   inkscape:export-ydpi="90"
   style="enable-background:new">
  <metadata
     id="metadata3352">
    <rdf:RDF>
      <cc:Work
         rdf:about="">
        <dc:format>image/svg+xml</dc:format>
        <dc:type
           rdf:resource="http://purl.org/dc/dcmitype/StillImage" />
        <dc:title />
      </cc:Work>
    </rdf:RDF>
  </metadata>
  <defs
     id="defs3350">
    <linearGradient
       inkscape:collect="always"
       id="linearGradient4154">
      <stop
         style="stop-color:#2edcff;stop-opacity:1;"
         offset="0"
         id="stop4156" />
      <stop
         style="stop-color:#2edcff;stop-opacity:0;"
         offset="1"
         id="stop4158" />
    </linearGradient>
    <linearGradient
       inkscape:collect="always"
       id="linearGradient4268">
      <stop
         style="stop-color:#000000;stop-opacity:1;"
         offset="0"
         id="stop4270" />
      <stop
         style="stop-color:#000000;stop-opacity:0"
         offset="1"
         id="stop4272" />
    </linearGradient>
    <linearGradient
       inkscape:collect="always"
       xlink:href="#linearGradient4154"
       id="linearGradient4160"
       x1="400"
       y1="555.27557"
       x2="400"
       y2="575.27557"
       gradientUnits="userSpaceOnUse"
       gradientTransform="translate(-44.590152,-79.514946)" />
    <filter
       inkscape:collect="always"
       style="color-interpolation-filters:sRGB"
       id="filter4193">
      <feBlend
         inkscape:collect="always"
         mode="lighten"
         in2="BackgroundImage"
         id="feBlend4195" />
    </filter>
    <linearGradient
       inkscape:collect="always"
       xlink:href="#linearGradient4268"
       id="linearGradient4332"
       x1="-91.629349"
       y1="296.68484"
       x2="-78.499649"
       y2="324.22171"
       gradientUnits="userSpaceOnUse" />
    <linearGradient
       inkscape:collect="always"
       xlink:href="#linearGradient4268"
       id="linearGradient4334"
       gradientUnits="userSpaceOnUse"
       x1="-91.629349"
       y1="296.68484"
       x2="-78.499649"
       y2="324.22171" />
    <linearGradient
       inkscape:collect="always"
       xlink:href="#linearGradient4268"
       id="linearGradient4336"
       gradientUnits="userSpaceOnUse"
       x1="-91.629349"
       y1="296.68484"
       x2="-78.499649"
       y2="324.22171" />
    <clipPath
       clipPathUnits="userSpaceOnUse"
       id="clipPath4352">
      <rect
         style="fill:#000000;fill-opacity:1"
         id="rect4354"
         width="192.75815"
         height="249.46428"
         x="145.01897"
         y="-57.64072"
         transform="matrix(0,1,-1,0,0,0)" />
    </clipPath>
    <clipPath
       clipPathUnits="userSpaceOnUse"
       id="clipPath4174">
      <rect
         style="fill:#000000;fill-opacity:1"
         id="rect4176"
         width="214.46268"
         height="169.40216"
         x="-191.33849"
         y="156.47298" />
    </clipPath>
  </defs>
  <sodipodi:namedview
     pagecolor="#ffffff"
     bordercolor="#666666"
     borderopacity="1"
     objecttolerance="10"
     gridtolerance="10"
     guidetolerance="10"
     inkscape:pageopacity="0"
     inkscape:pageshadow="2"
     inkscape:window-width="1920"
     inkscape:window-height="1027"
     id="namedview3348"
     showgrid="false"
     showguides="true"
     inkscape:zoom="1"
     inkscape:cx="321.16365"
     inkscape:cy="303.62104"
     inkscape:window-x="-8"
     inkscape:window-y="-8"
     inkscape:window-maximized="1"
     inkscape:current-layer="layer2"
     inkscape:object-paths="false"
     units="cm">
    <inkscape:grid
       type="xygrid"
       id="grid3384" />
  </sodipodi:namedview>
  <text
     xml:space="preserve"
     style="font-style:normal;font-weight:normal;font-size:40px;line-height:125%;font-family:sans-serif;letter-spacing:0px;word-spacing:0px;fill:#000000;fill-opacity:1;stroke:none;stroke-width:1px;stroke-linecap:butt;stroke-linejoin:miter;stroke-opacity:1"
     x="117.67075"
     y="167.37617"
     id="text3362"
     sodipodi:linespacing="125%"><tspan
       sodipodi:role="line"
       id="tspan3364"
       x="117.67075"
       y="167.37617" /></text>
  <g
     inkscape:groupmode="layer"
     id="layer2"
     inkscape:label="Layer 0"
     transform="translate(0,113.3858)">
    <g
       id="g4178">
      <g
         clip-path="url(#clipPath4174)"
         style="fill:url(#linearGradient4332);fill-opacity:1"
         transform="matrix(1.5232642,0,0,1.4525975,304.2875,-218.45079)"
         id="g4284">
        <path
           sodipodi:type="star"
           style="fill:url(#linearGradient4334);fill-opacity:1"
           id="path4241"
           sodipodi:sides="3"
           sodipodi:cx="40"
           sodipodi:cy="175.27557"
           sodipodi:r1="200"
           sodipodi:r2="100"
           sodipodi:arg1="1.5707963"
           sodipodi:arg2="2.6179939"
           inkscape:flatsided="false"
           inkscape:rounded="0"
           inkscape:randomized="0"
           d="m 40.000005,375.27557 -86.602546,-150 -86.602539,-149.999992 173.205082,-4e-6 173.205078,-5e-6 -86.60254,150.000011 z"
           transform="matrix(0.02886399,-0.02895748,1.0252688,1.0219586,-218.3834,102.98243)"
           inkscape:transform-center-y="48.590128"
           inkscape:transform-center-x="-48.763749" />
        <path
           sodipodi:type="star"
           style="fill:url(#linearGradient4336);fill-opacity:1"
           id="path4241-5"
           sodipodi:sides="3"
           sodipodi:cx="40"
           sodipodi:cy="175.27557"
           sodipodi:r1="200"
           sodipodi:r2="100"
           sodipodi:arg1="1.5707963"
           sodipodi:arg2="2.6179939"
           inkscape:flatsided="false"
           inkscape:rounded="0"
           inkscape:randomized="0"
           d="m 40.000005,375.27557 -86.602546,-150 -86.602539,-149.999992 173.205082,-4e-6 173.205078,-5e-6 -86.60254,150.000011 z"
           transform="matrix(0.02886399,-0.02895748,1.0252688,1.0219586,-231.2155,115.60189)"
           inkscape:transform-center-y="48.590131"
           inkscape:transform-center-x="-48.763751" />
      </g>
      <g
         style="fill:#2edcff;fill-opacity:1"
         transform="translate(-42.590152,-61.514946)"
         id="g4233">
        <text
           xml:space="preserve"
           style="font-style:normal;font-weight:normal;font-size:288.1937561px;line-height:125%;font-family:sans-serif;letter-spacing:0px;word-spacing:0px;fill:#2edcff;fill-opacity:1;stroke:none;stroke-width:1px;stroke-linecap:butt;stroke-linejoin:miter;stroke-opacity:1"
           x="142.81796"
           y="267.57935"
           id="text3354"
           sodipodi:linespacing="125%"><tspan
             sodipodi:role="line"
             id="tspan3356"
             x="142.81796"
             y="267.57935">食</tspan></text>
        <text
           xml:space="preserve"
           style="font-style:normal;font-weight:normal;font-size:288.1937561px;line-height:125%;font-family:sans-serif;letter-spacing:0px;word-spacing:0px;fill:#2edcff;fill-opacity:1;stroke:none;stroke-width:1px;stroke-linecap:butt;stroke-linejoin:miter;stroke-opacity:1"
           x="390.86606"
           y="273.31647"
           id="text3354-4"
           sodipodi:linespacing="125%"><tspan
             sodipodi:role="line"
             id="tspan3356-6"
             x="390.86606"
             y="273.31647">品</tspan></text>
      </g>
      <path
         inkscape:connector-curvature="0"
         id="path4219"
         d="m 104.00946,242.69794 a 275.43124,270.66016 0 0 0 137.71484,234.40039 275.43124,270.66016 0 0 0 275.43164,0 275.43124,270.66016 0 0 0 137.71485,-234.39844 l -550.86133,-0.002 z m 90.64062,16.66406 c 8.52737,-0.2242 9.51351,8.27941 8.32618,17.13867 0.18017,7.22547 -2.32329,17.48149 7.56836,8.33204 11.6559,-4.44163 25.83756,-0.83545 33.82226,8.78711 12.91235,16.57408 10.78094,43.2528 7.04688,60.92773 -22.12413,4.43565 -6.86981,-25.87949 -12.26758,-38.94531 1.39559,-27.08222 -42.51551,-20.56867 -36.16992,4.57617 l 0,34.37109 c -22.93478,6.26837 -11.04877,-22.6683 -13.88282,-35.63086 0.002,-19.49412 0.0152,-38.98831 0.01,-58.48242 2.13041,-0.6934 3.96773,-1.0327 5.54687,-1.07422 z m 137.97266,0 c 8.52737,-0.2242 9.51351,8.27941 8.32617,17.13867 l 0,39.08594 32.72071,-32.7207 c 10.77782,-1.2006 24.5481,-0.44853 10.80273,8.85352 l -26.75781,26.75781 35.95703,35.95703 -19.53906,0 -26.2461,-26.2461 c -11.64042,6.40362 -2.79427,39.16908 -20.96289,22.91407 0.33932,-30.20081 0.0628,-60.44632 0.15235,-90.66602 2.1304,-0.6934 3.96773,-1.0327 5.54687,-1.07422 z m 138.65039,0 c 8.52737,-0.2242 9.51546,8.27941 8.32813,17.13867 0.18017,7.22547 -2.32525,17.48149 7.5664,8.33204 11.6559,-4.44163 25.83952,-0.83545 33.82422,8.78711 12.91235,16.57408 10.78094,43.2528 7.04688,60.92773 -22.12413,4.43565 -6.87176,-25.87949 -12.26953,-38.94531 1.39558,-27.08222 -42.51551,-20.56866 -36.16993,4.57617 l 0,34.37109 c -22.93478,6.26837 -11.04876,-22.6683 -13.88281,-35.63086 0.002,-19.49412 0.0152,-38.98831 0.01,-58.48242 2.13041,-0.6934 3.96773,-1.0327 5.54687,-1.07422 z m 71.24805,6.62696 c 10.94241,-0.7358 13.88176,19.53516 -0.3086,16.29882 -8.93242,1.84956 -3.2315,-10.17676 -4.84375,-14.5664 1.86333,-1.09232 3.58915,-1.62731 5.15235,-1.73242 z m -140.54297,16.29492 c 15.00338,-0.39957 6.09479,23.0814 8.41406,34.55664 -4.22078,22.44154 27.64242,33.0818 35.85938,10.67187 2.07782,-14.47549 0.55075,-29.54085 1.02148,-44.29882 24.28102,-6.07163 10.82494,27.502 13.24219,41.24218 -1.66968,16.00614 -14.92154,30.52983 -31.62695,30.32422 -22.51846,0.38963 -35.84273,-24.59182 -32.37305,-44.75781 l 0,-26.80859 c 2.10276,-0.59221 3.91082,-0.88836 5.46289,-0.92969 z m 188.93164,1.11914 c 5.13097,0.0339 10.19174,1.23352 15.13477,4.94336 2.25567,1.51171 4.31048,3.32475 6.07617,5.38867 12.74123,16.65239 10.67894,43.25494 6.93164,60.92969 -22.12413,4.43566 -6.86982,-25.88144 -12.26758,-38.94727 1.45197,-26.11621 -40.30989,-21.26719 -36.40234,3.10547 l 0,35.8418 c -13.63462,4.43775 -15.28026,-5.56459 -13.87305,-16.06446 l 0,-52.84375 c 11.48212,3.13478 23.11225,-2.42805 34.40039,-2.35351 z m -435.42773,0.0586 c 5.20331,-0.122 10.41159,1.04346 14.76171,3.64258 12.45514,3.94927 21.94077,30.68608 0.31446,24.43555 6.10068,-22.23656 -43.40933,-12.19804 -17.61133,-0.32031 7.1978,1.66523 15.00482,1.18722 21.6582,4.83007 20.61706,10.79407 5.13899,42.40467 -16.02343,38.99805 -14.43906,2.99527 -38.18708,-19.49132 -26.10547,-28.79688 13.19951,1.734 25.15616,28.52651 37.57421,6.87696 -7.86221,-12.68309 -37.9813,-4.10631 -39.94921,-25.96289 -1.18065,-14.67442 12.08349,-23.39134 25.38086,-23.70313 z m 133.90234,0.11133 c 12.86818,-0.16323 26.0852,7.1128 30.39258,20.01563 9.68375,20.96293 -4.11667,51.5558 -29.20313,51.1914 -28.7997,0.38991 -42.48185,-39.69107 -24.14648,-59.8457 5.51121,-7.65527 14.15249,-11.24964 22.95703,-11.36133 z m 253.53125,0.0684 c 8.52737,-0.2242 9.51546,8.27941 8.32812,17.13867 l 0,53.76953 -13.875,0 0,-69.83203 c 2.13041,-0.6934 3.96774,-1.03465 5.54688,-1.07617 z m -252.3418,13.44727 c -24.4891,0.58565 -24.40253,44.09348 0.4375,43.69921 23.81758,-1.54588 23.75094,-42.88708 -0.4375,-43.69921 z"
         style="fill:url(#linearGradient4160);fill-opacity:1" />
    </g>
  </g>
  <g
     inkscape:groupmode="layer"
     id="layer1"
     inkscape:label="Layer 1"
     style="opacity:1;filter:url(#filter4193)"
     transform="translate(0,113.3858)" />
</svg>
